<mxfile host="Electron" agent="Mozilla/5.0 (Macintosh; Intel Mac OS X 10_15_7) AppleWebKit/537.36 (KHTML, like Gecko) draw.io/24.7.17 Chrome/128.0.6613.36 Electron/32.0.1 Safari/537.36" version="24.7.17">
  <diagram name="AWS" id="zzbDusr88BfF08cqsqyc">
    <mxGraphModel dx="1634" dy="1214" grid="0" gridSize="10" guides="1" tooltips="1" connect="1" arrows="1" fold="1" page="0" pageScale="1" pageWidth="1100" pageHeight="850" math="0" shadow="0">
      <root>
        <mxCell id="0" />
        <mxCell id="1" parent="0" />
        <mxCell id="chuthd7vNJDoZVe5VCft-7" value="AWS Cloud" style="points=[[0,0],[0.25,0],[0.5,0],[0.75,0],[1,0],[1,0.25],[1,0.5],[1,0.75],[1,1],[0.75,1],[0.5,1],[0.25,1],[0,1],[0,0.75],[0,0.5],[0,0.25]];outlineConnect=0;gradientColor=none;html=1;whiteSpace=wrap;fontSize=12;fontStyle=0;container=1;pointerEvents=0;collapsible=0;recursiveResize=0;shape=mxgraph.aws4.group;grIcon=mxgraph.aws4.group_aws_cloud_alt;strokeColor=#232F3E;fillColor=none;verticalAlign=top;align=left;spacingLeft=30;fontColor=#232F3E;dashed=0;strokeWidth=2;" parent="1" vertex="1">
          <mxGeometry x="315" y="80" width="701" height="548" as="geometry" />
        </mxCell>
        <mxCell id="chuthd7vNJDoZVe5VCft-4" value="Direct Connect" style="sketch=0;points=[[0,0,0],[0.25,0,0],[0.5,0,0],[0.75,0,0],[1,0,0],[0,1,0],[0.25,1,0],[0.5,1,0],[0.75,1,0],[1,1,0],[0,0.25,0],[0,0.5,0],[0,0.75,0],[1,0.25,0],[1,0.5,0],[1,0.75,0]];outlineConnect=0;fontColor=#333333;fillColor=#f5f5f5;strokeColor=#666666;dashed=0;verticalLabelPosition=bottom;verticalAlign=top;align=center;html=1;fontSize=12;fontStyle=0;aspect=fixed;shape=mxgraph.aws4.resourceIcon;resIcon=mxgraph.aws4.direct_connect;" parent="chuthd7vNJDoZVe5VCft-7" vertex="1">
          <mxGeometry x="40" y="270" width="78" height="78" as="geometry" />
        </mxCell>
        <mxCell id="chuthd7vNJDoZVe5VCft-8" value="Region" style="points=[[0,0],[0.25,0],[0.5,0],[0.75,0],[1,0],[1,0.25],[1,0.5],[1,0.75],[1,1],[0.75,1],[0.5,1],[0.25,1],[0,1],[0,0.75],[0,0.5],[0,0.25]];outlineConnect=0;gradientColor=none;html=1;whiteSpace=wrap;fontSize=12;fontStyle=0;container=1;pointerEvents=0;collapsible=0;recursiveResize=0;shape=mxgraph.aws4.group;grIcon=mxgraph.aws4.group_region;strokeColor=#00A4A6;fillColor=none;verticalAlign=top;align=left;spacingLeft=30;fontColor=#147EBA;dashed=1;strokeWidth=2;" parent="chuthd7vNJDoZVe5VCft-7" vertex="1">
          <mxGeometry x="319" y="30" width="376" height="509" as="geometry" />
        </mxCell>
        <mxCell id="chuthd7vNJDoZVe5VCft-9" value="VPC" style="points=[[0,0],[0.25,0],[0.5,0],[0.75,0],[1,0],[1,0.25],[1,0.5],[1,0.75],[1,1],[0.75,1],[0.5,1],[0.25,1],[0,1],[0,0.75],[0,0.5],[0,0.25]];outlineConnect=0;gradientColor=none;html=1;whiteSpace=wrap;fontSize=12;fontStyle=0;container=1;pointerEvents=0;collapsible=0;recursiveResize=0;shape=mxgraph.aws4.group;grIcon=mxgraph.aws4.group_vpc2;strokeColor=#8C4FFF;fillColor=none;verticalAlign=top;align=left;spacingLeft=30;fontColor=#AAB7B8;dashed=0;strokeWidth=2;" parent="chuthd7vNJDoZVe5VCft-8" vertex="1">
          <mxGeometry x="189" y="169" width="170" height="220" as="geometry" />
        </mxCell>
        <mxCell id="R_H9T7LPfRfOgaKDwm76-1" value="Availability Zone" style="fillColor=none;strokeColor=#147EBA;dashed=1;verticalAlign=top;fontStyle=0;fontColor=#147EBA;whiteSpace=wrap;html=1;" vertex="1" parent="chuthd7vNJDoZVe5VCft-9">
          <mxGeometry x="6" y="30" width="159" height="183" as="geometry" />
        </mxCell>
        <mxCell id="R_H9T7LPfRfOgaKDwm76-2" value="Public subnet" style="points=[[0,0],[0.25,0],[0.5,0],[0.75,0],[1,0],[1,0.25],[1,0.5],[1,0.75],[1,1],[0.75,1],[0.5,1],[0.25,1],[0,1],[0,0.75],[0,0.5],[0,0.25]];outlineConnect=0;gradientColor=none;html=1;whiteSpace=wrap;fontSize=12;fontStyle=0;container=1;pointerEvents=0;collapsible=0;recursiveResize=0;shape=mxgraph.aws4.group;grIcon=mxgraph.aws4.group_security_group;grStroke=0;strokeColor=#7AA116;fillColor=#F2F6E8;verticalAlign=top;align=left;spacingLeft=30;fontColor=#248814;dashed=0;" vertex="1" parent="chuthd7vNJDoZVe5VCft-9">
          <mxGeometry x="24" y="135" width="130" height="75" as="geometry" />
        </mxCell>
        <mxCell id="chuthd7vNJDoZVe5VCft-6" value="" style="sketch=0;outlineConnect=0;fontColor=#232F3E;gradientColor=none;fillColor=#ED7100;strokeColor=none;dashed=0;verticalLabelPosition=bottom;verticalAlign=top;align=center;html=1;fontSize=12;fontStyle=0;aspect=fixed;pointerEvents=1;shape=mxgraph.aws4.instance2;" parent="chuthd7vNJDoZVe5VCft-9" vertex="1">
          <mxGeometry x="100" y="159" width="48" height="48" as="geometry" />
        </mxCell>
        <mxCell id="R_H9T7LPfRfOgaKDwm76-3" value="tgw subnet" style="points=[[0,0],[0.25,0],[0.5,0],[0.75,0],[1,0],[1,0.25],[1,0.5],[1,0.75],[1,1],[0.75,1],[0.5,1],[0.25,1],[0,1],[0,0.75],[0,0.5],[0,0.25]];outlineConnect=0;gradientColor=none;html=1;whiteSpace=wrap;fontSize=12;fontStyle=0;container=1;pointerEvents=0;collapsible=0;recursiveResize=0;shape=mxgraph.aws4.group;grIcon=mxgraph.aws4.group_security_group;grStroke=0;strokeColor=#7AA116;fillColor=#F2F6E8;verticalAlign=top;align=left;spacingLeft=30;fontColor=#248814;dashed=0;" vertex="1" parent="chuthd7vNJDoZVe5VCft-9">
          <mxGeometry x="20.5" y="54" width="130" height="75" as="geometry" />
        </mxCell>
        <mxCell id="chuthd7vNJDoZVe5VCft-5" value="TGW" style="sketch=0;points=[[0,0,0],[0.25,0,0],[0.5,0,0],[0.75,0,0],[1,0,0],[0,1,0],[0.25,1,0],[0.5,1,0],[0.75,1,0],[1,1,0],[0,0.25,0],[0,0.5,0],[0,0.75,0],[1,0.25,0],[1,0.5,0],[1,0.75,0]];outlineConnect=0;fontColor=#232F3E;fillColor=#8C4FFF;strokeColor=#ffffff;dashed=0;verticalLabelPosition=bottom;verticalAlign=top;align=center;html=1;fontSize=12;fontStyle=0;aspect=fixed;shape=mxgraph.aws4.resourceIcon;resIcon=mxgraph.aws4.transit_gateway;" parent="chuthd7vNJDoZVe5VCft-8" vertex="1">
          <mxGeometry x="51" y="167" width="78" height="78" as="geometry" />
        </mxCell>
        <mxCell id="chuthd7vNJDoZVe5VCft-12" style="edgeStyle=orthogonalEdgeStyle;rounded=0;orthogonalLoop=1;jettySize=auto;html=1;strokeColor=default;strokeWidth=2;align=center;verticalAlign=middle;fontFamily=Helvetica;fontSize=11;fontColor=default;labelBackgroundColor=default;endArrow=classic;startArrow=classic;startFill=1;" parent="chuthd7vNJDoZVe5VCft-8" source="chuthd7vNJDoZVe5VCft-5" target="R_H9T7LPfRfOgaKDwm76-3" edge="1">
          <mxGeometry relative="1" as="geometry">
            <Array as="points">
              <mxPoint x="157" y="206" />
              <mxPoint x="157" y="261" />
            </Array>
          </mxGeometry>
        </mxCell>
        <mxCell id="R_H9T7LPfRfOgaKDwm76-4" value="att" style="edgeLabel;html=1;align=center;verticalAlign=middle;resizable=0;points=[];" vertex="1" connectable="0" parent="chuthd7vNJDoZVe5VCft-12">
          <mxGeometry x="-0.0951" relative="1" as="geometry">
            <mxPoint as="offset" />
          </mxGeometry>
        </mxCell>
        <mxCell id="pEPaFxKAQTOBD3I_Bd1l-2" value="Direct Connect" style="sketch=0;points=[[0,0,0],[0.25,0,0],[0.5,0,0],[0.75,0,0],[1,0,0],[0,1,0],[0.25,1,0],[0.5,1,0],[0.75,1,0],[1,1,0],[0,0.25,0],[0,0.5,0],[0,0.75,0],[1,0.25,0],[1,0.5,0],[1,0.75,0]];outlineConnect=0;fontColor=#232F3E;fillColor=#8C4FFF;strokeColor=#ffffff;dashed=0;verticalLabelPosition=bottom;verticalAlign=top;align=center;html=1;fontSize=12;fontStyle=0;aspect=fixed;shape=mxgraph.aws4.resourceIcon;resIcon=mxgraph.aws4.direct_connect;" parent="chuthd7vNJDoZVe5VCft-7" vertex="1">
          <mxGeometry x="40" y="135" width="78" height="78" as="geometry" />
        </mxCell>
        <mxCell id="chuthd7vNJDoZVe5VCft-3" value="DX GW" style="sketch=0;outlineConnect=0;fontColor=#232F3E;gradientColor=none;fillColor=#8C4FFF;strokeColor=none;dashed=0;verticalLabelPosition=top;verticalAlign=bottom;align=center;html=1;fontSize=12;fontStyle=0;aspect=fixed;pointerEvents=1;shape=mxgraph.aws4.gateway;labelPosition=center;" parent="chuthd7vNJDoZVe5VCft-7" vertex="1">
          <mxGeometry x="216" y="197" width="76" height="78" as="geometry" />
        </mxCell>
        <mxCell id="chuthd7vNJDoZVe5VCft-14" style="edgeStyle=orthogonalEdgeStyle;rounded=0;orthogonalLoop=1;jettySize=auto;html=1;exitX=1;exitY=0.5;exitDx=0;exitDy=0;exitPerimeter=0;strokeColor=#B3B3B3;strokeWidth=2;align=center;verticalAlign=middle;fontFamily=Helvetica;fontSize=11;fontColor=default;labelBackgroundColor=default;endArrow=classic;fillColor=#f5f5f5;" parent="chuthd7vNJDoZVe5VCft-7" source="chuthd7vNJDoZVe5VCft-4" target="chuthd7vNJDoZVe5VCft-3" edge="1">
          <mxGeometry relative="1" as="geometry" />
        </mxCell>
        <mxCell id="chuthd7vNJDoZVe5VCft-13" style="edgeStyle=orthogonalEdgeStyle;rounded=0;orthogonalLoop=1;jettySize=auto;html=1;strokeColor=default;strokeWidth=2;align=center;verticalAlign=middle;fontFamily=Helvetica;fontSize=11;fontColor=default;labelBackgroundColor=default;endArrow=classic;startArrow=classic;startFill=1;" parent="chuthd7vNJDoZVe5VCft-7" source="chuthd7vNJDoZVe5VCft-3" target="chuthd7vNJDoZVe5VCft-5" edge="1">
          <mxGeometry relative="1" as="geometry">
            <mxPoint x="372" y="309" as="sourcePoint" />
          </mxGeometry>
        </mxCell>
        <mxCell id="R_H9T7LPfRfOgaKDwm76-9" value="assoc" style="edgeLabel;html=1;align=center;verticalAlign=middle;resizable=0;points=[];" vertex="1" connectable="0" parent="chuthd7vNJDoZVe5VCft-13">
          <mxGeometry x="-0.0492" y="3" relative="1" as="geometry">
            <mxPoint as="offset" />
          </mxGeometry>
        </mxCell>
        <mxCell id="pEPaFxKAQTOBD3I_Bd1l-6" style="edgeStyle=orthogonalEdgeStyle;rounded=0;orthogonalLoop=1;jettySize=auto;html=1;strokeWidth=2;" parent="chuthd7vNJDoZVe5VCft-7" source="pEPaFxKAQTOBD3I_Bd1l-2" target="chuthd7vNJDoZVe5VCft-3" edge="1">
          <mxGeometry relative="1" as="geometry" />
        </mxCell>
        <mxCell id="chuthd7vNJDoZVe5VCft-15" style="edgeStyle=orthogonalEdgeStyle;rounded=0;orthogonalLoop=1;jettySize=auto;html=1;strokeWidth=2;fillColor=#f5f5f5;strokeColor=#B3B3B3;" parent="1" source="chuthd7vNJDoZVe5VCft-1" target="R_H9T7LPfRfOgaKDwm76-5" edge="1">
          <mxGeometry relative="1" as="geometry" />
        </mxCell>
        <mxCell id="R_H9T7LPfRfOgaKDwm76-7" style="edgeStyle=orthogonalEdgeStyle;rounded=0;orthogonalLoop=1;jettySize=auto;html=1;strokeWidth=2;strokeColor=#B3B3B3;" edge="1" parent="1" source="R_H9T7LPfRfOgaKDwm76-5" target="chuthd7vNJDoZVe5VCft-4">
          <mxGeometry relative="1" as="geometry">
            <Array as="points">
              <mxPoint x="262" y="314" />
              <mxPoint x="262" y="389" />
            </Array>
          </mxGeometry>
        </mxCell>
        <mxCell id="R_H9T7LPfRfOgaKDwm76-5" value="I2CC&lt;div&gt;Router&lt;/div&gt;" style="sketch=0;outlineConnect=0;fillColor=#FF3333;strokeColor=#b85450;dashed=0;verticalLabelPosition=bottom;verticalAlign=top;align=center;html=1;fontSize=12;fontStyle=0;aspect=fixed;pointerEvents=1;shape=mxgraph.aws4.customer_gateway;labelPosition=center;" vertex="1" parent="1">
          <mxGeometry x="132" y="277" width="78" height="78" as="geometry" />
        </mxCell>
        <mxCell id="chuthd7vNJDoZVe5VCft-1" value="Campus Router" style="sketch=0;outlineConnect=0;fontColor=#232F3E;gradientColor=none;fillColor=#B3B3B3;strokeColor=none;dashed=0;verticalLabelPosition=bottom;verticalAlign=top;align=center;html=1;fontSize=12;fontStyle=0;aspect=fixed;pointerEvents=1;shape=mxgraph.aws4.customer_gateway;labelPosition=center;" parent="1" vertex="1">
          <mxGeometry x="-121" y="350" width="78" height="78" as="geometry" />
        </mxCell>
        <mxCell id="pEPaFxKAQTOBD3I_Bd1l-1" value="Campus Router" style="sketch=0;outlineConnect=0;fontColor=#232F3E;gradientColor=none;fillColor=#8C4FFF;strokeColor=none;dashed=0;verticalLabelPosition=top;verticalAlign=bottom;align=center;html=1;fontSize=12;fontStyle=0;aspect=fixed;pointerEvents=1;shape=mxgraph.aws4.customer_gateway;labelPosition=center;" parent="1" vertex="1">
          <mxGeometry x="-121" y="215" width="78" height="78" as="geometry" />
        </mxCell>
        <mxCell id="pEPaFxKAQTOBD3I_Bd1l-3" style="edgeStyle=orthogonalEdgeStyle;rounded=0;orthogonalLoop=1;jettySize=auto;html=1;strokeWidth=2;" parent="1" source="pEPaFxKAQTOBD3I_Bd1l-1" target="R_H9T7LPfRfOgaKDwm76-5" edge="1">
          <mxGeometry relative="1" as="geometry" />
        </mxCell>
        <mxCell id="pEPaFxKAQTOBD3I_Bd1l-7" style="edgeStyle=orthogonalEdgeStyle;rounded=0;orthogonalLoop=1;jettySize=auto;html=1;endArrow=none;endFill=0;strokeWidth=3;strokeColor=#B3B3B3;" parent="1" source="pEPaFxKAQTOBD3I_Bd1l-1" target="chuthd7vNJDoZVe5VCft-1" edge="1">
          <mxGeometry relative="1" as="geometry" />
        </mxCell>
        <mxCell id="R_H9T7LPfRfOgaKDwm76-6" style="edgeStyle=orthogonalEdgeStyle;rounded=0;orthogonalLoop=1;jettySize=auto;html=1;strokeWidth=2;" edge="1" parent="1" source="R_H9T7LPfRfOgaKDwm76-5" target="pEPaFxKAQTOBD3I_Bd1l-2">
          <mxGeometry relative="1" as="geometry">
            <Array as="points">
              <mxPoint x="262" y="314" />
              <mxPoint x="262" y="254" />
            </Array>
          </mxGeometry>
        </mxCell>
        <mxCell id="R_H9T7LPfRfOgaKDwm76-8" value="50 Mbps" style="edgeLabel;html=1;align=center;verticalAlign=middle;resizable=0;points=[];" vertex="1" connectable="0" parent="R_H9T7LPfRfOgaKDwm76-6">
          <mxGeometry x="0.0565" y="3" relative="1" as="geometry">
            <mxPoint x="2" y="25" as="offset" />
          </mxGeometry>
        </mxCell>
        <mxCell id="ycRkz0ZerhdYFoithyHN-3" value="Alternate" style="" parent="0" visible="0" />
        <mxCell id="chuthd7vNJDoZVe5VCft-21" style="edgeStyle=orthogonalEdgeStyle;rounded=0;orthogonalLoop=1;jettySize=auto;html=1;opacity=50;strokeColor=#666666;strokeWidth=2;align=center;verticalAlign=middle;fontFamily=Helvetica;fontSize=11;fontColor=default;labelBackgroundColor=default;elbow=vertical;endArrow=classic;fillColor=#f5f5f5;" parent="ycRkz0ZerhdYFoithyHN-3" source="chuthd7vNJDoZVe5VCft-1" edge="1">
          <mxGeometry relative="1" as="geometry">
            <Array as="points">
              <mxPoint x="71" y="542" />
              <mxPoint x="352" y="542" />
            </Array>
            <mxPoint x="354" y="542" as="targetPoint" />
          </mxGeometry>
        </mxCell>
        <mxCell id="chuthd7vNJDoZVe5VCft-19" value="" style="sketch=0;points=[[0,0,0],[0.25,0,0],[0.5,0,0],[0.75,0,0],[1,0,0],[0,1,0],[0.25,1,0],[0.5,1,0],[0.75,1,0],[1,1,0],[0,0.25,0],[0,0.5,0],[0,0.75,0],[1,0.25,0],[1,0.5,0],[1,0.75,0]];outlineConnect=0;fontColor=default;fillColor=#dae8fc;strokeColor=#6c8ebf;dashed=0;verticalLabelPosition=bottom;verticalAlign=top;align=center;html=1;fontSize=12;fontStyle=0;aspect=fixed;shape=mxgraph.aws4.resourceIcon;resIcon=mxgraph.aws4.site_to_site_vpn;pointerEvents=1;strokeWidth=2;fontFamily=Helvetica;" parent="ycRkz0ZerhdYFoithyHN-3" vertex="1">
          <mxGeometry x="352" y="514" width="78" height="78" as="geometry" />
        </mxCell>
        <mxCell id="chuthd7vNJDoZVe5VCft-23" style="edgeStyle=orthogonalEdgeStyle;rounded=0;orthogonalLoop=1;jettySize=auto;html=1;opacity=50;strokeColor=#666666;strokeWidth=2;align=center;verticalAlign=middle;fontFamily=Helvetica;fontSize=11;fontColor=default;labelBackgroundColor=default;elbow=vertical;endArrow=classic;fillColor=#f5f5f5;exitX=1;exitY=0.75;exitDx=0;exitDy=0;exitPerimeter=0;" parent="ycRkz0ZerhdYFoithyHN-3" edge="1" target="chuthd7vNJDoZVe5VCft-2" source="chuthd7vNJDoZVe5VCft-19">
          <mxGeometry relative="1" as="geometry">
            <Array as="points">
              <mxPoint x="572" y="573" />
              <mxPoint x="572" y="573" />
            </Array>
            <mxPoint x="435" y="647" as="sourcePoint" />
            <mxPoint x="659" y="639" as="targetPoint" />
          </mxGeometry>
        </mxCell>
        <mxCell id="pEPaFxKAQTOBD3I_Bd1l-5" style="edgeStyle=orthogonalEdgeStyle;rounded=0;orthogonalLoop=1;jettySize=auto;html=1;opacity=50;strokeColor=#666666;strokeWidth=2;align=center;verticalAlign=middle;fontFamily=Helvetica;fontSize=11;fontColor=default;labelBackgroundColor=default;elbow=vertical;endArrow=classic;fillColor=#f5f5f5;" parent="ycRkz0ZerhdYFoithyHN-3" source="chuthd7vNJDoZVe5VCft-19" target="chuthd7vNJDoZVe5VCft-3" edge="1">
          <mxGeometry relative="1" as="geometry">
            <Array as="points">
              <mxPoint x="558" y="546" />
            </Array>
          </mxGeometry>
        </mxCell>
        <mxCell id="chuthd7vNJDoZVe5VCft-2" value="VPG" style="sketch=0;outlineConnect=0;dashed=0;verticalLabelPosition=bottom;verticalAlign=top;align=center;html=1;fontSize=12;fontStyle=0;aspect=fixed;pointerEvents=1;shape=mxgraph.aws4.vpn_gateway;strokeWidth=2;fillColor=#dae8fc;strokeColor=#6c8ebf;" parent="ycRkz0ZerhdYFoithyHN-3" vertex="1">
          <mxGeometry x="653" y="514" width="78" height="78" as="geometry" />
        </mxCell>
        <mxCell id="chuthd7vNJDoZVe5VCft-17" style="edgeStyle=orthogonalEdgeStyle;rounded=0;orthogonalLoop=1;jettySize=auto;html=1;entryX=0.5;entryY=1;entryDx=0;entryDy=0;fillColor=#f5f5f5;strokeColor=#666666;strokeWidth=2;opacity=50;" parent="ycRkz0ZerhdYFoithyHN-3" source="chuthd7vNJDoZVe5VCft-2" target="chuthd7vNJDoZVe5VCft-9" edge="1">
          <mxGeometry relative="1" as="geometry" />
        </mxCell>
        <mxCell id="chuthd7vNJDoZVe5VCft-16" style="rounded=0;orthogonalLoop=1;jettySize=auto;html=1;edgeStyle=elbowEdgeStyle;elbow=vertical;fillColor=#f5f5f5;strokeColor=#666666;strokeWidth=2;opacity=50;" parent="ycRkz0ZerhdYFoithyHN-3" edge="1">
          <mxGeometry relative="1" as="geometry">
            <Array as="points">
              <mxPoint x="628" y="545.36" />
            </Array>
            <mxPoint x="579" y="358.99986755584575" as="sourcePoint" />
            <mxPoint x="652" y="545.3600000000001" as="targetPoint" />
          </mxGeometry>
        </mxCell>
      </root>
    </mxGraphModel>
  </diagram>
</mxfile>
